<svg xmlns="http://www.w3.org/2000/svg" width="369.072" height="26.928" viewBox="0 0 369.072 26.928">
  <path id="Path_2824" data-name="Path 2824" d="M8.172-22.86H.936v-2.916h17.5v2.916h-7.2V0H8.172Zm14.112-2.916h3.024v11.16h13.32v-11.16h3.024V0H38.628V-11.736H25.308V0H22.284Zm25.128,0h14.9v2.916H50.436v8.532H61.164v2.88H50.436v8.532h11.88V0h-14.9ZM75.1.576A9.814,9.814,0,0,1,69.12-1.332a10.031,10.031,0,0,1-3.636-5.4l4.572-1.8a6.744,6.744,0,0,0,1.836,3.276,4.534,4.534,0,0,0,3.24,1.224,4.7,4.7,0,0,0,2.772-.81,2.6,2.6,0,0,0,1.152-2.25,2.935,2.935,0,0,0-1.1-2.358,14.194,14.194,0,0,0-3.906-1.962l-1.584-.576a10.941,10.941,0,0,1-4.248-2.646,6.11,6.11,0,0,1-1.764-4.482A6.746,6.746,0,0,1,67.5-22.788a7.2,7.2,0,0,1,2.952-2.61,9.528,9.528,0,0,1,4.32-.954,8.489,8.489,0,0,1,5.508,1.638,8.464,8.464,0,0,1,2.772,3.834l-4.284,1.8a4.29,4.29,0,0,0-1.386-2,3.878,3.878,0,0,0-2.538-.81,4.36,4.36,0,0,0-2.61.738,2.27,2.27,0,0,0-1.026,1.926,2.47,2.47,0,0,0,.972,1.962,10.39,10.39,0,0,0,3.2,1.566l1.62.54a12.506,12.506,0,0,1,5.13,3.042,6.921,6.921,0,0,1,1.782,4.95A6.957,6.957,0,0,1,82.62-2.9a7.93,7.93,0,0,1-3.33,2.61A10.627,10.627,0,0,1,75.1.576Zm25.6,0a13.438,13.438,0,0,1-6.858-1.782,12.943,12.943,0,0,1-4.842-4.878,13.5,13.5,0,0,1-1.764-6.8,13.5,13.5,0,0,1,1.764-6.8,12.943,12.943,0,0,1,4.842-4.878,13.438,13.438,0,0,1,6.858-1.782,13.438,13.438,0,0,1,6.858,1.782,12.943,12.943,0,0,1,4.842,4.878,13.5,13.5,0,0,1,1.764,6.8,13.5,13.5,0,0,1-1.764,6.8,12.943,12.943,0,0,1-4.842,4.878A13.438,13.438,0,0,1,100.692.576Zm0-4.608a8.719,8.719,0,0,0,4.356-1.116,8.055,8.055,0,0,0,3.114-3.132,9.236,9.236,0,0,0,1.134-4.608,9.236,9.236,0,0,0-1.134-4.608,8.055,8.055,0,0,0-3.114-3.132,8.719,8.719,0,0,0-4.356-1.116,8.62,8.62,0,0,0-4.338,1.116,8.091,8.091,0,0,0-3.1,3.132,9.236,9.236,0,0,0-1.134,4.608A9.236,9.236,0,0,0,93.258-8.28a8.091,8.091,0,0,0,3.1,3.132A8.62,8.62,0,0,0,100.692-4.032ZM130.608.576a13.467,13.467,0,0,1-6.84-1.782,13.076,13.076,0,0,1-4.878-4.86,13.369,13.369,0,0,1-1.782-6.822,13.369,13.369,0,0,1,1.782-6.822,13.076,13.076,0,0,1,4.878-4.86,13.467,13.467,0,0,1,6.84-1.782,12.456,12.456,0,0,1,9.648,4.212l-3.42,3.312a7.807,7.807,0,0,0-6.192-2.916,8.9,8.9,0,0,0-4.392,1.1,7.93,7.93,0,0,0-3.114,3.114A9.31,9.31,0,0,0,122-12.888a9.31,9.31,0,0,0,1.134,4.644,7.93,7.93,0,0,0,3.114,3.114,8.9,8.9,0,0,0,4.392,1.1,8.419,8.419,0,0,0,6.8-3.384L140.9-4.14a12.772,12.772,0,0,1-4.518,3.51A13.609,13.609,0,0,1,130.608.576Zm14.8-26.352h4.86V0H145.4Zm17.964,0h5.58L178.632,0h-5.364l-2.16-6.156h-9.864L159.084,0H153.72Zm6.156,15.156-2.268-6.48-.936-3.1h-.288l-.936,3.1-2.3,6.48Zm12.6-15.156h4.86V-4.608h10.908V0H182.124ZM213.984.576a13.377,13.377,0,0,1-6.8-1.764,12.755,12.755,0,0,1-4.806-4.842,13.654,13.654,0,0,1-1.746-6.858,13.654,13.654,0,0,1,1.746-6.858,12.756,12.756,0,0,1,4.806-4.842,13.377,13.377,0,0,1,6.8-1.764,12.5,12.5,0,0,1,5.274,1.1,12.268,12.268,0,0,1,4.158,3.114l-2.2,2.124A9.608,9.608,0,0,0,218-22.608a9.264,9.264,0,0,0-4.014-.828,10.334,10.334,0,0,0-5.148,1.314,9.784,9.784,0,0,0-3.726,3.708,10.829,10.829,0,0,0-1.386,5.526,10.829,10.829,0,0,0,1.386,5.526,9.784,9.784,0,0,0,3.726,3.708,10.334,10.334,0,0,0,5.148,1.314,10.083,10.083,0,0,0,7.956-3.852l2.232,2.16a13,13,0,0,1-4.428,3.366A13.308,13.308,0,0,1,213.984.576Zm25.956,0a12.912,12.912,0,0,1-6.732-1.8A12.967,12.967,0,0,1,228.456-6.1a13.624,13.624,0,0,1-1.728-6.786,13.654,13.654,0,0,1,1.728-6.768,12.93,12.93,0,0,1,4.752-4.9,12.912,12.912,0,0,1,6.732-1.8,12.912,12.912,0,0,1,6.732,1.8,13.065,13.065,0,0,1,4.77,4.9,13.544,13.544,0,0,1,1.746,6.768A13.624,13.624,0,0,1,251.46-6.1a12.926,12.926,0,0,1-4.77,4.878A13.007,13.007,0,0,1,239.94.576Zm0-2.916a9.954,9.954,0,0,0,5.094-1.35,9.828,9.828,0,0,0,3.672-3.744,10.91,10.91,0,0,0,1.35-5.454,10.91,10.91,0,0,0-1.35-5.454,9.828,9.828,0,0,0-3.672-3.744,9.954,9.954,0,0,0-5.094-1.35,9.858,9.858,0,0,0-5.076,1.35,9.964,9.964,0,0,0-3.672,3.762,10.823,10.823,0,0,0-1.368,5.436,10.823,10.823,0,0,0,1.368,5.436,9.964,9.964,0,0,0,3.672,3.762A9.858,9.858,0,0,0,239.94-2.34Zm17.748-23.436h3.744l12.924,20.52h.144l-.144-4.968V-25.776h3.06V0h-3.168L260.712-21.492h-.144l.144,4.968V0h-3.024Zm25.488,0h3.744l12.924,20.52h.144l-.144-4.968V-25.776h3.06V0h-3.168L286.2-21.492h-.144l.144,4.968V0h-3.024Zm25.488,0h14.9v2.916h-11.88v8.532h10.728v2.88H311.688v8.532h11.88V0h-14.9ZM339.876.576a13.377,13.377,0,0,1-6.8-1.764,12.755,12.755,0,0,1-4.806-4.842,13.654,13.654,0,0,1-1.746-6.858,13.654,13.654,0,0,1,1.746-6.858,12.755,12.755,0,0,1,4.806-4.842,13.377,13.377,0,0,1,6.8-1.764,12.5,12.5,0,0,1,5.274,1.1,12.268,12.268,0,0,1,4.158,3.114l-2.2,2.124a9.608,9.608,0,0,0-3.222-2.592,9.264,9.264,0,0,0-4.014-.828,10.334,10.334,0,0,0-5.148,1.314A9.784,9.784,0,0,0,331-18.414a10.829,10.829,0,0,0-1.386,5.526A10.829,10.829,0,0,0,331-7.362a9.784,9.784,0,0,0,3.726,3.708,10.334,10.334,0,0,0,5.148,1.314,10.083,10.083,0,0,0,7.956-3.852l2.232,2.16a13,13,0,0,1-4.428,3.366A13.308,13.308,0,0,1,339.876.576ZM359.748-22.86h-7.236v-2.916h17.5v2.916h-7.2V0h-3.06Z" transform="translate(-0.936 26.352)" fill="#fff"/>
</svg>
