<?xml version="1.0" encoding="utf-8"?>
<!-- Generator: Adobe Illustrator 23.1.0, SVG Export Plug-In . SVG Version: 6.00 Build 0)  -->
<svg version="1.1" id="Layer_1" xmlns="http://www.w3.org/2000/svg" xmlns:xlink="http://www.w3.org/1999/xlink" x="0px" y="0px"
	 viewBox="0 0 2973.6 775.3" style="enable-background:new 0 0 2973.6 775.3;" xml:space="preserve">
<style type="text/css">
	.st0{fill:#82D2EC;}
	.st1{fill:#FFFFFF;}
</style>
<g>
	<path class="st0" d="M326.5,460.5L326.5,460.5c-13-21.1-6.3-48.9,14.7-61.9l315.1-193.9c21.1-13,48.9-6.3,61.9,14.7l0,0
		c13,21.1,6.3,48.9-14.7,61.9L388.4,475.3C367.4,488.3,339.5,481.6,326.5,460.5z"/>
	<g>
		<g>
			<path class="st1" d="M1264.2,46.4h-72.5V0h194v46.4h-72.5v213.3h-49V46.4z"/>
			<path class="st1" d="M1424.9,0h164.7v46.4h-115.7v60.2H1578v46.4h-104.1v60.2h115.7v46.4h-164.7V0z"/>
			<path class="st1" d="M1640,0h56.9l104.5,174.1h2.9l-2.9-50.1V0h48.6v259.7h-51.5L1688.2,75.8h-2.9l2.9,50.1v133.8H1640V0z"/>
			<path class="st1" d="M1909.1,0h164.7v46.4h-115.7v60.2h104.1v46.4h-104.1v60.2h115.7v46.4h-164.7V0z"/>
			<path class="st1" d="M1265.7,662c-20.8-12-37.2-28.3-49.1-49c-12-20.7-18-43.6-18-68.7c0-25.1,6-48.1,18-68.7
				c12-20.7,28.4-37,49.1-49c20.8-12,43.8-18,68.9-18c39.2,0,71.6,14.1,97.2,42.4l-34.5,33.4c-16.7-19.6-37.5-29.4-62.4-29.4
				c-16.2,0-31,3.7-44.2,11.1c-13.3,7.4-23.8,17.8-31.4,31.4c-7.6,13.5-11.4,29.1-11.4,46.8c0,17.7,3.8,33.2,11.4,46.8
				c7.6,13.5,18.1,24,31.4,31.4c13.3,7.4,28,11.1,44.2,11.1c27.3,0,50.2-11.4,68.5-34.1l34.8,33c-12.8,15.5-28,27.3-45.5,35.4
				c-17.5,8.1-36.9,12.2-58.2,12.2C1309.5,680,1286.5,674,1265.7,662z"/>
			<path class="st1" d="M1530.3,662c-20.7-12-36.9-28.3-48.8-49.1c-11.9-20.8-17.8-43.6-17.8-68.5c0-24.9,5.9-47.8,17.8-68.5
				c11.8-20.8,28.1-37.2,48.8-49.1c20.7-12,43.7-18,69.1-18c25.4,0,48.4,6,69.1,18c20.7,12,36.9,28.4,48.8,49.1
				c11.8,20.8,17.8,43.6,17.8,68.5c0,24.9-5.9,47.8-17.8,68.5c-11.9,20.8-28.1,37.2-48.8,49.1c-20.7,12-43.7,18-69.1,18
				C1574,680,1551,674,1530.3,662z M1643.3,622.3c13.3-7.5,23.8-18,31.4-31.6c7.6-13.5,11.4-29,11.4-46.4c0-17.4-3.8-32.9-11.4-46.4
				c-7.6-13.5-18.1-24.1-31.4-31.6c-13.3-7.5-27.9-11.2-43.9-11.2c-16,0-30.5,3.7-43.7,11.2c-13.2,7.5-23.6,18-31.2,31.6
				c-7.6,13.5-11.4,29-11.4,46.4c0,17.4,3.8,32.9,11.4,46.4c7.6,13.5,18,24.1,31.2,31.6c13.2,7.5,27.7,11.2,43.7,11.2
				C1615.3,633.6,1630,629.8,1643.3,622.3z"/>
			<path class="st1" d="M1781.4,414.5h56.9l104.5,174.1h2.9l-2.9-50.1v-124h48.6v259.7h-51.5l-110.3-183.9h-2.9l2.9,50.1v133.8
				h-48.2V414.5z"/>
			<path class="st1" d="M2050.6,414.5h56.9L2212,588.6h2.9l-2.9-50.1v-124h48.6v259.7h-51.5l-110.3-183.9h-2.9l2.9,50.1v133.8h-48.2
				V414.5z"/>
			<path class="st1" d="M2319.7,414.5h164.7v46.4h-115.7v60.2h104.1v46.4h-104.1v60.2h115.7v46.4h-164.7V414.5z"/>
			<path class="st1" d="M2581.5,662c-20.8-12-37.2-28.3-49.1-49c-12-20.7-18-43.6-18-68.7c0-25.1,6-48.1,18-68.7
				c12-20.7,28.4-37,49.1-49c20.8-12,43.8-18,68.9-18c39.2,0,71.6,14.1,97.2,42.4l-34.5,33.4c-16.7-19.6-37.5-29.4-62.4-29.4
				c-16.2,0-31,3.7-44.2,11.1c-13.3,7.4-23.8,17.8-31.4,31.4c-7.6,13.5-11.4,29.1-11.4,46.8c0,17.7,3.8,33.2,11.4,46.8
				c7.6,13.5,18.1,24,31.4,31.4c13.3,7.4,28,11.1,44.2,11.1c27.3,0,50.2-11.4,68.5-34.1l34.8,33c-12.8,15.5-28,27.3-45.5,35.4
				c-17.5,8.1-36.9,12.2-58.2,12.2C2625.3,680,2602.3,674,2581.5,662z"/>
			<path class="st1" d="M2852.1,460.9h-72.5v-46.4h194v46.4h-72.5v213.3h-49V460.9z"/>
		</g>
		<g>
			<path class="st1" d="M954.8,0H612.4c-49.6,0-90,40.4-90,90v150.2l113-69.5c13.4-8.2,28.7-12.6,44.4-12.6
				c14.2,0,28.3,3.6,40.8,10.4c13,7.1,23.9,17.4,31.7,30c11.9,19.3,15.5,42.1,10.2,64.2c-5.3,22.1-18.8,40.8-38.1,52.7L619.6,380
				h216.3c8.2,38.6,35,91.8,119.8,95.3c3.9,0.2,6.5-4,4.6-7.4c-8.6-15.4-25.6-52-17.6-87.9h12.2c49.6,0,90-40.4,90-90V90
				C1044.8,40.4,1004.4,0,954.8,0z"/>
			<path class="st1" d="M365,521.9c-14.2,0-28.3-3.6-40.8-10.4c-13-7.1-23.9-17.4-31.7-30c-24.6-39.9-12.1-92.4,27.8-116.9
				L425.2,300H90c-49.6,0-90,40.4-90,90v200c0,49.6,40.4,90,90,90h12.2c7.9,35.9-9.1,72.5-17.6,87.9c-1.9,3.4,0.7,7.6,4.6,7.4
				c84.8-3.5,111.6-56.7,119.8-95.3h223.4c49.6,0,90-40.4,90-90V439.8l-113,69.5C396,517.6,380.7,521.9,365,521.9z"/>
		</g>
	</g>
</g>
</svg>
